<svg width="64" height="64" viewBox="0 0 64 64" fill="none" xmlns="http://www.w3.org/2000/svg">
  <rect width="64" height="64" rx="14" fill="#070C14"/>
  <rect x="1" y="1" width="62" height="62" rx="13" stroke="#1F2B3F" stroke-width="2"/>
  <path d="M20.2 21.3C20.2 17.8 23.3 15.4 27.4 15.4C31.2 15.4 33.8 17.4 34.4 20.8H30.5C30.1 19.3 29 18.5 27.4 18.5C25.4 18.5 24.1 19.5 24.1 21.1C24.1 22.3 25 23.1 27.2 23.8L29.2 24.4C33.2 25.6 35.1 27.5 35.1 30.8C35.1 34.8 31.7 37.3 27.2 37.3C22.8 37.3 19.8 35.1 19.3 31.4H23.2C23.7 33.2 25 34.2 27.2 34.2C29.5 34.2 31.1 33.1 31.1 31.4C31.1 30 30.3 29.2 28.1 28.5L26 27.9C22.2 26.8 20.2 24.8 20.2 21.3Z" fill="#EAF2FF"/>
  <path d="M36.8 15.9H41L45.6 25.6L50.2 15.9H54.4L47.2 29.1V36.8H43.6V29.1L36.8 15.9Z" fill="#00C7FF"/>
</svg>
