<svg width="1024" height="1024" viewBox="0 0 1024 1024" fill="none" xmlns="http://www.w3.org/2000/svg">
  <rect width="1024" height="1024" fill="#6D5AF8"/>
  <path d="M516.172 74C468.144 74.14 415.184 102.31 362.348 138.77C267.781 204.013 173.69 300.274 117.91 397.208C62.1303 494.142 45.6415 579.977 84.2149 646.884C122.788 713.791 205.764 751.429 314.548 751.112L314.548 751.112C423.332 750.796 552.463 712.559 675.857 658.18C799.251 603.8 913.748 536.073 974.59 464.351C1008.57 424.333 1027.57 386.391 1028 349.998C1028.42 313.605 1009.68 277.779 975.778 242.992C915.343 181.021 801.329 109.707 678.336 80.0386C621.486 66.3284 567.464 73.8503 516.172 74ZM583.213 292.198C605.096 291.937 624.816 301.005 642.657 319.588C678.337 356.755 712.96 414.81 740.636 477.08C768.312 539.349 787.885 604.683 770.942 635.962C754 667.242 705.906 701.466 653.95 731.343C601.994 761.22 545.417 786.95 505.954 791.102C487.123 793.083 470.095 788.707 455.658 777.995C408.875 743.27 352.918 659.868 314.626 590.558C293.651 552.591 275.129 514.714 264.826 481.422C254.524 448.13 253.469 420.305 265.411 404.636C287.609 375.506 339.393 333.983 398.83 300.26C458.267 266.538 524.293 241.216 583.213 292.198Z" fill="#ECECEC"/>
</svg>
